<?xml version="1.0" standalone="no"?>
<!DOCTYPE svg PUBLIC "-//W3C//DTD SVG 20010904//EN"
 "http://www.w3.org/TR/2001/REC-SVG-20010904/DTD/svg10.dtd">
<svg version="1.0" xmlns="http://www.w3.org/2000/svg"
 width="700.000000pt" height="700.000000pt" viewBox="0 0 700.000000 700.000000"
 preserveAspectRatio="xMidYMid meet">
<metadata>
Created by potrace 1.14, written by Peter Selinger 2001-2017
</metadata>
<g transform="translate(0.000000,700.000000) scale(0.100000,-0.100000)"
fill="#000000" stroke="none">
<path d="M4665 6094 c-5 -1 -37 -5 -70 -7 -33 -3 -76 -8 -95 -12 -19 -3 -46
-8 -60 -10 -22 -3 -118 -20 -465 -80 -50 -8 -102 -18 -115 -20 -31 -6 -185
-32 -225 -38 -16 -3 -59 -10 -95 -16 -36 -7 -74 -14 -85 -16 -50 -8 -105 -18
-320 -55 -126 -22 -246 -42 -265 -45 -66 -11 -85 -14 -175 -30 -95 -17 -193
-34 -235 -40 -14 -2 -38 -7 -55 -10 -33 -6 -121 -21 -175 -30 -35 -6 -128 -22
-165 -29 -11 -2 -40 -7 -65 -11 -25 -4 -52 -9 -60 -10 -8 -1 -35 -6 -60 -10
-61 -10 -173 -51 -240 -88 -92 -51 -142 -88 -221 -166 -112 -111 -185 -227
-236 -376 -24 -72 -27 -86 -41 -190 -4 -33 -7 -712 -6 -1510 2 -1229 4 -1458
16 -1502 21 -76 75 -159 138 -212 30 -25 57 -48 60 -51 3 -3 61 -50 130 -105
69 -55 132 -105 140 -112 131 -107 395 -314 421 -330 46 -29 126 -60 174 -68
47 -7 157 -7 200 0 17 3 66 12 110 20 107 19 143 25 185 30 19 3 58 10 85 15
52 10 218 39 320 56 17 2 80 13 140 24 61 11 127 22 149 26 21 3 46 7 55 9 9
1 36 6 61 10 25 4 54 9 65 11 11 3 36 7 55 10 19 3 49 7 65 10 17 3 37 7 45 9
8 2 33 6 55 10 22 3 67 10 100 16 33 6 71 13 85 15 14 3 61 11 105 19 44 8 96
17 115 19 19 3 89 14 155 26 376 65 592 102 614 105 14 2 37 6 51 9 14 3 43 7
65 11 22 3 47 7 55 10 8 2 33 6 55 10 132 19 277 50 327 70 175 71 296 225
326 415 3 19 6 739 6 1600 0 1465 -1 1569 -17 1620 -35 109 -99 211 -167 265
-14 11 -65 54 -115 95 -49 41 -96 79 -103 85 -7 5 -18 15 -25 20 -7 6 -77 65
-157 130 -80 66 -154 128 -165 137 -146 123 -238 194 -277 214 -47 24 -154 54
-173 48z"/>
</g>
</svg>
